<svg xmlns="http://www.w3.org/2000/svg" width="1200" height="630" viewBox="0 0 1200 630" role="img" aria-labelledby="title description">
  <title id="title">SVG workspace</title>
  <desc id="description">Browse, preview, and convert SVG assets for React Native, React, and raw SVG workflows.</desc>
  <defs>
    <linearGradient id="bg" x1="0" x2="1" y1="0" y2="1">
      <stop offset="0" stop-color="#F8FFF4"/>
      <stop offset="0.55" stop-color="#FFFFFF"/>
      <stop offset="1" stop-color="#EAF7FF"/>
    </linearGradient>
    <filter id="shadow" x="-20%" y="-20%" width="140%" height="140%">
      <feDropShadow dx="0" dy="18" stdDeviation="24" flood-color="#1F2A44" flood-opacity="0.16"/>
    </filter>
  </defs>
  <rect width="1200" height="630" fill="url(#bg)"/>
  <rect x="76" y="76" width="1048" height="478" rx="34" fill="#FFFFFF" stroke="#DBE2EC" filter="url(#shadow)"/>
  <rect x="120" y="130" width="132" height="132" rx="30" fill="#EFFFE8" stroke="#A7FC7C" stroke-width="4"/>
  <path d="M160 196L186 170M160 196L186 222M212 170L238 196L212 222" fill="none" stroke="#12330F" stroke-width="14" stroke-linecap="round" stroke-linejoin="round"/>
  <text x="294" y="188" fill="#315D22" font-family="Inter, Arial, sans-serif" font-size="28" font-weight="800" letter-spacing="0">Free SVG tool</text>
  <text x="120" y="368" fill="#111827" font-family="Inter, Arial, sans-serif" font-size="88" font-weight="900" letter-spacing="0">SVG workspace</text>
  <text x="124" y="430" fill="#5D6678" font-family="Inter, Arial, sans-serif" font-size="34" font-weight="600">Catalog, preview, and convert SVG assets for React Native and React.</text>
  <g fill="none" stroke="#67BF3D" stroke-width="5" stroke-linecap="round" stroke-linejoin="round">
    <path d="M898 176H1038V316H898z"/>
    <path d="M938 246H998M968 216V276"/>
    <path d="M854 364H1082"/>
    <path d="M886 414H1050"/>
    <path d="M926 464H1010"/>
  </g>
</svg>
